# xmcd
#
# Track frame offsets:
#	183
#	11448
#	28250
#	45530
#	60123
#	71925
#	90078
#	107070
#	119485
#	138525
#	155518
#	176515
#
# Disc length: 2563 seconds
#
# Revision: 4
# Processed by: cddbd v1.5.1PL0 Copyright (c) Steve Scherf et al.
# Submitted via: audiograbber 1.83.01
#
DISCID=980a010c
DTITLE=Various Artist - Absolute Country
DYEAR=1900
DGENRE=Blues
TTITLE0=Alan Jackson - Chattahoochee
TTITLE1=Brooks and Dunn - Rock My World
TTITLE2=Clint Black - Desperado
TTITLE3=Carlene Carter - Every Little Thing
TTITLE4=Martina McBride - My Baby Loves Me
TTITLE5=Radney Foster - A Fine Line
TTITLE6=Michelle Wright - He Would Be Sixteen
TTITLE7=Pam Tillis - When You Walk In The Room
TTITLE8=Matraca Berg - Lying To The Moon
TTITLE9=Restless Heart - When She Cries
TTITLE10=Lee Roy Parnell - On The Road
TTITLE11=Clay Walker - Dreaming With My Eyes Open
EXTD=
EXTT0=
EXTT1=
EXTT2=
EXTT3=
EXTT4=
EXTT5=
EXTT6=
EXTT7=
EXTT8=
EXTT9=
EXTT10=
EXTT11=
PLAYORDER=
